<?xml version="1.0" standalone="no"?>
<!DOCTYPE svg PUBLIC "-//W3C//DTD SVG 20010904//EN"
 "http://www.w3.org/TR/2001/REC-SVG-20010904/DTD/svg10.dtd">
<svg version="1.0" xmlns="http://www.w3.org/2000/svg"
 width="260.000000pt" height="260.000000pt" viewBox="0 0 260.000000 260.000000"
 preserveAspectRatio="xMidYMid meet">
<metadata>
Created by potrace 1.11, written by Peter Selinger 2001-2013
</metadata>
<g transform="translate(0.000000,260.000000) scale(0.100000,-0.100000)"
fill="#000000" stroke="none">
<path d="M1471 2502 c-46 -129 -134 -228 -347 -393 -144 -112 -172 -167 -148
-288 6 -27 9 -30 33 -24 25 6 25 5 9 -14 -25 -28 -23 -31 15 -24 24 6 31 12
30 27 -15 121 -15 132 2 168 10 21 74 90 147 159 135 128 209 214 239 283 20
43 51 155 45 161 -2 2 -13 -23 -25 -55z"/>
<path d="M1887 2506 c-71 -153 -205 -289 -442 -444 -237 -155 -235 -154 -262
-189 -14 -18 -27 -50 -30 -72 -5 -33 -2 -41 18 -54 13 -8 34 -18 46 -21 20 -6
21 -4 16 32 -4 33 -1 44 26 75 18 19 69 57 114 83 240 139 407 284 474 409 33
62 77 207 70 228 -2 6 -16 -15 -30 -47z"/>
<path d="M1498 2345 c-26 -65 -73 -121 -155 -187 -189 -153 -243 -221 -242
-303 1 -37 1 -38 9 -13 22 73 50 100 252 241 121 85 163 153 156 252 l-3 50
-17 -40z"/>
<path d="M1852 2212 c-34 -79 -127 -154 -327 -267 -136 -76 -198 -123 -220
-165 -14 -27 -21 -80 -10 -80 2 0 23 20 45 44 39 42 91 72 262 149 146 67 207
124 248 235 12 30 20 68 18 84 l-3 29 -13 -29z"/>
<path d="M1776 1884 c-22 -30 -99 -68 -183 -90 -71 -18 -117 -39 -161 -71 -30
-23 -72 -77 -72 -95 0 -3 24 7 53 22 28 16 88 36 131 45 152 31 211 70 246
163 22 56 16 66 -14 26z"/>
<path d="M701 1825 c-1 -11 10 -37 24 -58 14 -20 23 -37 19 -37 -3 0 -1 -7 6
-15 10 -12 0 -32 -59 -112 -39 -54 -81 -110 -93 -125 l-22 -28 20 -37 c18 -33
25 -38 53 -36 18 0 40 8 49 16 9 8 42 20 72 25 30 6 64 14 74 18 17 7 19 4 14
-27 -4 -20 -36 -102 -73 -183 -42 -93 -70 -168 -75 -205 -8 -54 0 -168 16
-218 4 -16 2 -23 -6 -23 -7 0 -27 -11 -45 -24 -37 -29 -87 -50 -136 -60 -51
-9 -89 -50 -89 -94 0 -37 22 -121 48 -185 17 -42 106 -131 125 -124 14 4 21
49 13 82 -4 15 -18 27 -41 35 -26 8 -36 19 -40 38 -3 15 -10 41 -15 58 -6 17
-10 45 -10 62 0 43 26 55 119 51 139 -5 170 -1 196 26 24 23 27 23 60 9 35
-14 35 -15 35 -77 0 -34 -9 -100 -21 -147 -13 -56 -18 -100 -14 -130 7 -53
-17 -131 -66 -216 -17 -31 -29 -58 -26 -61 12 -11 90 -4 106 10 9 8 25 17 36
19 13 2 22 14 26 37 4 18 18 43 32 55 14 11 32 42 40 69 9 26 37 74 62 106 38
48 47 69 56 122 16 100 80 217 141 255 21 14 56 40 78 60 34 30 39 33 44 17 3
-10 26 -43 51 -73 25 -30 61 -86 81 -125 20 -38 40 -74 45 -79 5 -6 9 -19 9
-29 0 -10 10 -33 22 -50 24 -33 47 -135 48 -210 0 -52 23 -107 44 -107 18 0
46 33 46 53 0 10 -11 39 -25 66 -21 40 -27 70 -34 172 -8 105 -13 131 -35 169
-22 39 -26 57 -26 135 0 114 -22 241 -54 311 l-25 54 24 0 c13 0 36 11 51 25
33 30 50 29 76 -6 17 -23 18 -31 7 -90 -20 -114 -22 -182 -6 -204 14 -18 15
-16 10 28 -7 56 11 65 22 10 4 -20 16 -48 27 -62 l21 -26 -8 25 c-14 43 -11
112 9 178 19 61 36 81 36 42 0 -28 44 -70 72 -70 22 1 22 1 -4 16 -37 20 -42
46 -34 178 4 61 4 119 0 129 -9 24 -56 47 -96 47 -50 0 -127 -42 -183 -99 -27
-28 -57 -51 -66 -51 -10 0 -30 11 -46 24 -43 36 -97 49 -166 42 l-61 -6 22 23
c30 32 28 43 -4 18 -31 -25 -72 -27 -80 -6 -8 20 51 75 81 75 24 0 75 35 75
52 0 5 11 23 25 40 33 39 32 58 0 25 -14 -13 -35 -27 -46 -30 -22 -6 -25 -13
28 69 12 18 22 24 37 20 21 -5 21 -5 1 10 -12 9 -30 13 -45 9 -14 -3 -50 -8
-80 -10 l-55 -4 52 7 c36 5 60 15 75 31 17 18 19 22 6 18 -21 -7 -39 13 -32
39 7 28 -30 81 -73 103 -21 10 -68 25 -103 32 -63 13 -64 14 -30 21 32 6 31 6
-12 5 -39 -2 -45 0 -35 12 10 12 9 14 -4 9 -9 -4 -38 -10 -65 -13 -40 -6 -47
-5 -36 6 24 26 11 28 -40 8 -41 -16 -57 -18 -76 -9 -17 7 -22 16 -18 28 4 11
-1 9 -14 -7 -17 -19 -20 -20 -20 -6 0 10 8 24 18 31 15 12 13 12 -15 3 -17 -6
-34 -17 -37 -26 -8 -21 -32 -1 -51 41 -10 24 -14 26 -14 11z m603 -221 c5 -14
4 -15 -9 -4 -17 14 -19 20 -6 20 5 0 12 -7 15 -16z m36 -259 c-7 -8 -24 -15
-39 -15 l-26 1 30 14 c40 18 50 18 35 0z m-262 -812 c-11 -154 -23 -200 -70
-270 -24 -35 -46 -63 -51 -63 -10 0 2 64 20 107 7 18 13 43 13 56 0 14 9 46
19 73 10 27 27 78 37 114 20 73 22 80 32 80 4 0 4 -44 0 -97z"/>
<path d="M715 1740 c3 -5 11 -10 16 -10 6 0 7 5 4 10 -3 6 -11 10 -16 10 -6 0
-7 -4 -4 -10z"/>
<path d="M1732 1650 c-21 -11 -67 -21 -120 -25 -105 -8 -143 -19 -182 -52 -35
-29 -40 -49 -9 -33 11 6 74 15 140 19 130 8 148 15 197 79 27 36 23 38 -26 12z"/>
<path d="M1700 1484 c-15 -8 -56 -14 -106 -14 -80 0 -138 -12 -161 -34 -9 -8
-1 -11 35 -12 26 0 77 -4 114 -9 76 -9 99 0 138 55 23 33 19 36 -20 14z"/>
<path d="M1404 1355 c-18 -14 -18 -14 9 -15 15 0 55 -12 90 -26 76 -31 116
-32 162 -4 19 12 35 23 35 24 0 2 -21 1 -47 -1 -32 -3 -68 2 -107 16 -70 25
-115 27 -142 6z"/>
<path d="M1370 1280 c-12 -8 -11 -10 6 -10 11 0 42 -14 68 -30 61 -39 93 -45
136 -27 l35 15 -32 1 c-17 1 -60 14 -95 31 -66 31 -93 36 -118 20z"/>
</g>
</svg>
